<?xml version="1.0" standalone="no"?>
<!DOCTYPE svg PUBLIC "-//W3C//DTD SVG 20010904//EN"
 "http://www.w3.org/TR/2001/REC-SVG-20010904/DTD/svg10.dtd">
<svg version="1.0" xmlns="http://www.w3.org/2000/svg"
 width="800.000000pt" height="500.000000pt" viewBox="0 0 800.000000 500.000000"
 preserveAspectRatio="xMidYMid meet">

<g transform="translate(0.000000,500.000000) scale(0.100000,-0.100000)"
fill="#000000" stroke="none">
<path d="M0 2500 l0 -2500 4000 0 4000 0 0 2500 0 2500 -4000 0 -4000 0 0
-2500z m7356 1920 c23 -11 50 -30 60 -42 11 -12 13 -18 5 -13 -11 6 -13 4 -8
-9 4 -9 3 -15 -2 -12 -7 5 -81 -160 -81 -181 0 -4 15 6 33 23 l32 29 -34 -37
c-30 -33 -33 -39 -21 -55 12 -15 12 -16 0 -5 -22 19 -26 16 -45 -45 -11 -32
-23 -63 -27 -69 -4 -6 -50 -121 -102 -255 -51 -134 -105 -273 -120 -308 -14
-35 -25 -66 -23 -67 2 -2 21 32 42 76 22 44 42 80 45 80 3 0 4 -19 1 -42 -3
-34 -6 -38 -10 -20 -5 21 -11 14 -40 -47 -19 -38 -39 -67 -44 -64 -5 3 -4 -4
2 -16 7 -11 17 -21 23 -21 6 0 9 -3 6 -6 -4 -3 -15 -1 -26 5 -19 10 -22 6 -40
-42 -23 -58 -176 -447 -215 -545 -14 -34 -21 -60 -16 -57 15 10 10 -8 -11 -40
-11 -16 -20 -40 -20 -53 0 -13 -4 -21 -9 -18 -5 4 -23 -29 -41 -71 -55 -135
-182 -436 -203 -483 -11 -25 -28 -65 -39 -90 -11 -25 -27 -58 -36 -75 -15 -28
-15 -29 1 -16 10 8 20 11 23 8 3 -3 -3 -12 -15 -19 -12 -7 -21 -16 -21 -20 0
-10 51 -68 60 -68 6 0 63 122 87 187 6 16 4 16 -18 -2 -19 -15 -18 -13 5 12
17 19 25 36 21 44 -5 7 -4 10 2 6 12 -8 23 14 23 44 0 11 4 18 9 15 15 -9 60
116 50 136 -7 13 -6 16 5 12 13 -5 33 35 96 196 l21 55 -45 -45 c-41 -39 -46
-49 -46 -89 0 -50 -4 -51 -13 -3 -6 30 -2 39 46 90 60 66 77 93 77 124 0 16 3
19 8 10 11 -16 77 142 68 163 -3 9 -2 13 4 10 6 -3 10 0 10 9 0 8 4 16 8 18
11 4 112 246 112 268 0 10 4 20 9 22 4 2 27 51 51 110 23 60 46 105 51 102 5
-3 9 -1 9 5 0 5 -5 13 -10 16 -6 4 -7 11 -4 17 4 7 9 6 14 -2 5 -8 9 -7 13 5
4 9 3 13 -2 10 -19 -11 -23 18 -5 36 19 18 19 18 18 -14 -2 -37 -129 -358
-409 -1032 -97 -236 -277 -659 -305 -720 -61 -133 -130 -298 -130 -309 0 -8
-4 -16 -8 -18 -9 -3 -83 -183 -86 -208 -2 -15 -31 -69 -54 -98 -7 -9 -3 3 8
26 12 24 19 50 16 58 -3 8 -1 14 4 14 6 0 11 19 11 43 2 34 3 36 6 12 5 -28 6
-26 29 30 14 33 32 85 40 115 9 30 20 59 25 64 5 6 9 18 9 29 0 10 5 15 10 12
7 -4 9 3 5 22 -4 18 -3 23 3 15 10 -15 62 98 62 136 0 12 4 22 9 22 4 0 20 34
35 76 15 41 30 83 33 92 5 12 -2 10 -23 -8 l-29 -25 28 31 c34 38 34 44 -2 78
l-29 28 -15 -28 c-8 -16 -47 -103 -87 -194 -40 -91 -84 -190 -97 -220 -14 -30
-48 -107 -75 -170 -71 -163 -156 -340 -163 -340 -3 0 2 16 10 37 8 20 13 38
11 40 -2 2 -12 -16 -22 -41 -11 -25 -23 -46 -27 -46 -10 0 -117 -109 -117
-120 0 -13 -126 -49 -285 -80 -124 -25 -154 -35 -177 -57 -15 -14 -25 -29 -23
-33 5 -9 -19 -20 -42 -20 -13 0 -13 3 -3 15 7 8 16 13 20 10 4 -2 15 4 25 15
17 19 17 20 -1 20 -10 0 -30 3 -44 5 -22 5 -23 4 -5 -5 15 -8 7 -9 -35 -5 -32
2 -47 1 -36 -4 18 -7 19 -8 2 -14 -10 -4 -24 -3 -31 3 -8 7 -76 2 -215 -16
-178 -22 -205 -28 -222 -47 -11 -12 -17 -16 -13 -10 3 7 0 13 -7 14 -7 0 -4 5
7 10 15 7 12 8 -15 4 -79 -11 -245 -15 -230 -6 10 7 1 11 -35 14 -47 3 -46 4
15 6 l65 2 -29 24 c-17 13 -34 23 -39 22 -5 -1 -12 4 -14 11 -3 6 2 12 11 12
9 0 16 -4 16 -9 0 -22 65 -48 105 -43 33 4 36 6 20 13 -12 5 1 6 32 2 29 -3
64 -2 79 1 l27 7 -44 47 -44 47 50 -48 51 -47 53 10 c54 10 131 47 131 62 0 5
-7 21 -16 36 -16 27 -16 27 7 -2 l22 -28 14 23 13 24 -6 -27 -6 -27 68 4 c53
3 60 2 29 -4 l-40 -8 55 -1 c63 -2 102 6 94 19 -3 5 19 9 48 9 58 1 235 24
243 32 8 7 -6 39 -14 34 -6 -4 -7 36 -2 54 0 2 19 -13 41 -35 22 -21 42 -37
44 -34 2 2 11 20 20 39 9 19 14 27 11 17 -3 -11 -8 -30 -11 -43 l-6 -24 43 16
c24 8 55 12 69 9 18 -4 21 -3 11 4 -11 7 -4 12 27 21 23 6 42 15 42 21 0 6 6
7 13 3 15 -10 -12 26 -33 43 -8 7 -12 13 -7 13 10 0 -19 56 -51 98 l-25 33
-13 -28 c-12 -28 -12 -28 -7 8 5 33 3 37 -21 43 -15 4 -31 4 -36 1 -6 -4 -20
1 -32 9 -19 13 -19 16 -5 16 11 0 23 15 33 40 9 23 18 39 21 36 2 -2 -3 -21
-11 -41 -9 -21 -16 -39 -16 -41 0 -2 22 -4 49 -4 45 0 50 2 61 30 7 17 17 33
22 36 5 4 3 -8 -6 -24 -21 -41 -21 -42 17 -43 l32 -1 -37 -10 c-21 -6 -38 -13
-38 -17 0 -16 88 -130 95 -123 5 4 5 1 1 -5 -4 -7 -2 -13 4 -13 6 0 8 -5 4
-12 -5 -8 0 -9 14 -6 13 4 22 1 22 -5 0 -6 17 5 37 24 l38 34 -29 -32 c-16
-18 -28 -35 -25 -37 2 -2 28 7 57 20 35 15 52 29 52 41 0 10 7 30 14 45 16 30
6 47 -14 23 -7 -8 -9 -23 -6 -32 6 -14 5 -15 -5 -6 -10 10 -17 9 -33 -5 -21
-17 -21 -17 -2 6 19 22 19 22 0 45 l-19 22 23 -19 23 -20 66 66 66 66 -49 -4
-49 -3 44 9 c25 5 48 13 52 17 4 5 9 40 11 78 l3 70 -90 5 -90 4 94 6 95 5 16
45 c9 25 20 54 25 65 43 106 43 109 13 100 -20 -5 -21 -4 -5 5 9 6 22 8 27 5
6 -3 10 -4 10 0 0 3 -10 10 -22 15 -22 8 -22 9 6 9 20 1 27 5 23 15 -3 8 -2
16 4 18 8 3 148 340 157 379 2 8 8 16 13 17 5 2 9 7 9 12 0 4 39 99 86 210 47
111 84 203 82 206 -2 2 -87 -52 -189 -120 -208 -138 -248 -164 -234 -149 6 6
106 75 224 153 155 103 210 144 200 151 -11 7 -9 9 6 9 16 0 28 20 59 100 22
55 37 103 33 106 -3 3 -27 -4 -52 -15 -68 -30 -69 -25 -2 10 32 16 57 36 57
45 0 8 4 13 9 10 5 -3 13 0 19 7 17 21 104 239 97 245 -7 8 -401 -398 -397
-410 1 -4 -6 -8 -15 -8 -12 0 8 27 58 78 41 42 136 139 210 215 74 76 134 142
133 148 -1 5 -2 14 -2 19 -1 6 -45 11 -104 12 l-103 2 103 3 c90 3 102 6 92
18 -7 8 -9 15 -4 15 5 0 17 7 28 15 18 14 18 17 0 112 -9 54 -21 102 -24 106
-4 5 -71 -24 -150 -63 -78 -39 -144 -70 -146 -68 -2 2 60 35 137 73 77 39 145
76 151 83 16 19 41 16 30 -4 -9 -16 6 -117 29 -208 9 -32 13 -36 23 -25 13 14
136 303 136 320 0 5 -36 -9 -81 -32 -45 -22 -83 -39 -85 -37 -2 2 41 26 96 53
54 27 97 52 94 57 -3 4 -1 15 4 24 8 15 10 15 15 0 5 -12 3 -15 -5 -10 -7 5
-9 2 -5 -8 3 -9 -10 -48 -28 -88 -19 -39 -30 -68 -24 -64 7 4 10 1 7 -7 -3 -8
-12 -13 -19 -11 -8 2 -11 0 -6 -4 4 -4 0 -18 -8 -31 -13 -19 -13 -23 -1 -23
14 0 41 53 39 80 -1 8 8 27 19 43 11 15 42 71 69 123 38 75 46 100 39 118 -6
17 -1 41 18 89 25 65 43 89 22 31 l-10 -29 25 30 c45 54 83 138 100 220 16 80
13 144 -6 114 -10 -16 -12 -8 -2 16 5 15 8 14 19 -6 11 -22 12 -21 12 16 0 22
-3 35 -5 28 -3 -8 -11 -5 -24 8 -18 18 -21 18 -45 3 -24 -16 -25 -20 -23 -121
1 -57 5 -106 10 -109 11 -6 12 -25 2 -22 -15 3 -43 -14 -37 -23 3 -5 0 -17 -5
-26 -6 -11 -11 -13 -11 -5 0 7 -5 10 -12 6 -7 -4 -8 -3 -4 5 4 6 11 9 16 6 5
-3 8 4 7 15 -1 13 -6 19 -15 15 -7 -3 -10 0 -7 6 4 6 13 8 21 5 15 -6 7 24
-10 37 -6 5 -1 5 12 2 20 -6 22 -3 22 27 0 18 -3 62 -6 99 -6 59 -9 67 -36 82
-28 16 -30 16 -54 -8 -13 -13 -24 -29 -24 -34 0 -5 -5 -22 -10 -37 l-11 -27
-22 21 -22 21 -38 -23 -37 -23 65 -28 c36 -15 64 -29 62 -31 -2 -2 -30 7 -62
20 -65 26 -77 25 -94 -7 -11 -22 -11 -21 -5 2 l6 24 -38 -22 c-22 -12 -28 -14
-14 -4 13 10 33 26 42 36 10 9 21 17 25 17 3 0 53 30 110 67 87 57 103 71 103
93 0 56 55 85 91 49 19 -19 25 -20 59 -10 50 15 64 13 21 -3 -24 -8 -37 -21
-42 -39 -7 -27 0 -38 35 -51 13 -4 17 -2 13 8 -4 10 -1 13 9 9 9 -3 11 -9 5
-17 -4 -6 -11 -38 -15 -71 l-6 -60 32 63 c26 53 29 65 17 73 -11 7 -9 9 8 9
17 0 20 5 16 23 -3 16 -2 18 5 9 6 -10 14 6 26 55 9 37 19 76 23 87 4 13 2 16
-7 11 -10 -6 -11 -4 -4 6 9 15 11 20 13 46 1 15 2 15 15 -2 11 -15 11 -22 0
-44 -8 -14 -14 -35 -13 -46 0 -12 6 -4 15 20 23 59 26 83 14 108 -11 21 -10
21 4 3 17 -21 18 -21 35 11 16 32 14 43 -11 44 -21 1 -21 2 -3 6 11 3 25 10
30 15 7 8 6 9 -1 5 -7 -4 -15 0 -18 9 -4 9 -13 14 -22 10 -8 -3 -13 -2 -10 3
15 23 -41 16 -104 -15 -74 -35 -98 -39 -30 -4 56 29 50 34 -7 7 -64 -30 -74
-37 -68 -47 3 -4 -3 -7 -13 -6 -9 0 -16 -5 -14 -13 1 -7 -5 -19 -15 -27 -16
-12 -16 -13 7 -8 17 3 19 2 9 -3 -14 -7 -5 -21 51 -83 63 -68 69 -73 87 -60
16 14 17 14 4 -2 -7 -10 -10 -18 -6 -18 5 0 1 -8 -7 -17 -9 -10 -19 -28 -22
-40 -4 -13 -12 -23 -17 -23 -5 0 -3 13 6 30 8 16 15 34 15 40 0 6 -33 47 -72
91 -58 63 -78 79 -96 76 -16 -3 -20 -1 -12 8 5 6 7 14 4 17 -3 3 0 9 7 14 8 5
10 3 4 -5 -6 -10 -3 -11 14 -1 31 16 16 32 -17 18 -15 -7 -31 -15 -36 -20 -6
-4 -20 -8 -32 -8 -13 0 -29 -6 -36 -12 -7 -7 -24 -14 -38 -16 -28 -2 -70 -48
-70 -75 0 -11 -8 -21 -19 -24 -18 -5 -69 -63 -54 -63 4 0 19 9 33 20 28 22 45
26 34 8 -4 -7 -3 -8 5 -4 6 4 9 11 6 16 -3 4 12 18 32 30 20 12 32 16 27 8 -5
-7 -23 -52 -39 -100 -16 -49 -32 -88 -36 -88 -3 0 -14 9 -24 20 -16 18 -16 22
-2 65 l16 46 -31 -18 c-16 -10 -32 -24 -35 -30 -5 -12 -43 -19 -43 -8 0 3 19
24 43 48 l42 42 -55 6 -55 6 60 2 c55 1 62 4 82 33 12 18 21 34 19 36 -2 2
-32 -6 -67 -17 -34 -12 -69 -21 -77 -21 -8 0 -28 -6 -45 -14 -18 -7 -54 -21
-82 -31 -27 -9 -60 -29 -73 -44 -12 -14 -20 -19 -17 -10 4 10 0 19 -10 23 -10
4 -14 2 -9 -5 4 -8 -1 -9 -16 -4 -15 5 -20 4 -16 -4 4 -6 5 -11 2 -11 -2 0
-13 -3 -23 -6 -15 -5 -16 -4 -3 5 12 9 9 10 -15 5 -42 -10 -67 -23 -60 -34 4
-6 -2 -7 -12 -3 -10 3 -15 2 -10 -2 4 -5 -4 -14 -19 -20 l-27 -10 58 -48 c56
-46 75 -56 75 -39 0 5 7 17 15 28 14 17 14 15 0 -13 -8 -18 -15 -36 -14 -40 2
-15 -21 -14 -27 1 -4 11 -13 14 -25 11 -12 -4 -22 1 -31 17 -7 13 -11 26 -11
29 1 4 -9 17 -22 29 l-25 23 -62 -53 c-107 -91 -115 -97 -80 -58 31 33 32 37
16 46 -14 8 -21 6 -30 -6 -11 -15 -12 -15 -11 3 1 11 11 28 22 38 20 18 20 18
-12 14 -18 -2 -30 0 -27 5 7 10 -15 9 -41 -2 -14 -6 -16 -9 -5 -10 8 -2 19 -2
23 -1 5 1 6 -3 3 -8 -4 -5 -18 -6 -34 -2 -33 10 -55 4 -45 -12 3 -7 3 -9 -2
-5 -4 4 -17 3 -29 -3 -13 -7 -10 -2 8 14 17 13 67 37 113 53 46 16 83 32 83
36 0 5 9 8 20 8 12 0 85 22 163 49 308 107 885 274 966 280 8 1 34 -8 57 -19z
m-39 -50 c-2 -23 -12 -26 -20 -6 -3 8 -1 17 6 20 7 2 13 5 14 5 1 1 1 -8 0
-19z m-40 -6 c-3 -3 -12 -4 -19 -1 -8 3 -5 6 6 6 11 1 17 -2 13 -5z m-67 -19
c-19 -7 -42 -13 -50 -13 -8 0 1 6 20 13 19 7 42 13 50 13 8 0 -1 -6 -20 -13z
m-75 -23 c-3 -3 -11 0 -18 7 -9 10 -8 11 6 5 10 -3 15 -9 12 -12z m326 1 c13
-16 12 -17 -3 -4 -10 7 -18 15 -18 17 0 8 8 3 21 -13z m-304 -39 c-3 -3 -12
-4 -19 -1 -8 3 -5 6 6 6 11 1 17 -2 13 -5z m338 -3 c7 -12 -12 -24 -25 -16
-11 7 -4 25 10 25 5 0 11 -4 15 -9z m-270 -11 c25 -11 -1 -11 -35 0 -20 6 -21
8 -5 8 11 0 29 -3 40 -8z m-292 -33 c-3 -5 0 -8 8 -5 8 3 14 10 14 16 0 5 4
14 9 19 6 5 6 2 1 -6 -6 -11 -4 -13 11 -8 18 7 18 6 -1 -9 -31 -24 -59 -38
-51 -25 4 6 1 11 -6 12 -9 0 -10 2 -1 5 7 3 9 13 6 22 -4 14 -3 14 5 2 6 -8 8
-18 5 -23z m516 30 c-2 -1 -13 -9 -24 -17 -19 -14 -19 -14 -6 3 7 9 18 17 24
17 6 0 8 -1 6 -3z m6 -27 c3 -5 1 -10 -4 -10 -6 0 -11 5 -11 10 0 6 2 10 4 10
3 0 8 -4 11 -10z m-21 -79 c-4 -28 -9 -50 -11 -47 -3 3 -2 28 2 56 4 28 9 49
12 47 2 -3 1 -28 -3 -56z m-144 35 c0 -2 -8 -10 -17 -17 -16 -13 -17 -12 -4 4
13 16 21 21 21 13z m-633 -82 c-3 -3 -12 -4 -19 -1 -8 3 -5 6 6 6 11 1 17 -2
13 -5z m40 -10 c-3 -3 -12 -4 -19 -1 -8 3 -5 6 6 6 11 1 17 -2 13 -5z m725
-76 c-5 -32 -32 -47 -32 -18 0 11 5 20 10 20 6 0 10 17 11 38 1 31 2 33 8 12
4 -14 5 -37 3 -52z m-967 22 c-9 -16 -18 -30 -21 -30 -2 0 2 14 11 30 9 17 18
30 21 30 2 0 -2 -13 -11 -30z m925 -53 c0 -2 -10 -12 -22 -23 l-23 -19 19 23
c18 21 26 27 26 19z m-1410 -32 c0 -8 -7 -15 -16 -15 -14 0 -14 3 -4 15 7 8
14 15 16 15 2 0 4 -7 4 -15z m-80 -15 c0 -5 -4 -10 -10 -10 -5 0 -10 5 -10 10
0 6 5 10 10 10 6 0 10 -4 10 -10z m1435 -17 c-10 -42 -21 -47 -19 -10 2 39 2
37 15 37 7 0 9 -10 4 -27z m-830 -13 c3 -5 52 -11 108 -12 l102 -2 -112 -5
-113 -6 -46 -50 -46 -50 37 48 c39 49 39 54 2 36 -21 -10 -21 -10 -3 5 11 9
23 16 28 16 4 0 8 7 8 15 0 17 25 20 35 5z m-484 -17 c13 -16 12 -17 -3 -4
-10 7 -18 15 -18 17 0 8 8 3 21 -13z m-183 -18 c-11 -25 -20 -30 -31 -19 -8 9
4 35 13 29 5 -3 11 -1 15 5 12 20 14 10 3 -15z m231 -1 c-6 -8 -17 -14 -23
-14 -6 0 -3 7 6 14 10 7 14 17 10 21 -4 5 -1 5 6 1 10 -6 10 -11 1 -22z m-159
12 c0 -2 -8 -10 -17 -17 -16 -13 -17 -12 -4 4 13 16 21 21 21 13z m1231 -43
c-12 -20 -14 -14 -5 12 4 9 9 14 11 11 3 -2 0 -13 -6 -23z m-431 -17 c0 -3
-39 -30 -87 -61 -48 -31 -97 -64 -110 -72 -13 -8 -23 -13 -23 -9 0 5 208 146
216 146 2 0 4 -2 4 -4z m528 -30 c-13 -19 -24 -33 -26 -31 -5 4 37 65 44 65 2
0 -6 -15 -18 -34z m85 -16 c-7 -27 -13 -25 -11 4 1 14 5 23 9 20 4 -2 5 -13 2
-24z m-567 -17 c-8 -15 -15 -25 -16 -21 0 12 23 58 27 54 3 -2 -2 -17 -11 -33z
m-496 6 c0 -5 -7 -9 -15 -9 -15 0 -20 12 -9 23 8 8 24 -1 24 -14z m140 8 c0
-2 -10 -12 -22 -23 l-23 -19 19 23 c18 21 26 27 26 19z m901 -54 c-12 -20 -14
-14 -5 12 4 9 9 14 11 11 3 -2 0 -13 -6 -23z m-210 -10 c-12 -20 -14 -14 -5
12 4 9 9 14 11 11 3 -2 0 -13 -6 -23z m-981 -8 c-25 -13 -49 -24 -55 -24 -5 0
10 11 35 24 25 13 50 24 55 24 6 0 -10 -11 -35 -24z m250 22 c0 -2 -10 -12
-22 -23 l-23 -19 19 23 c18 21 26 27 26 19z m366 -34 c-8 -15 -15 -25 -16 -21
0 12 23 58 27 54 3 -2 -2 -17 -11 -33z m-904 -5 c-15 -15 -26 -4 -18 18 5 13
9 15 18 6 9 -9 9 -15 0 -24z m1168 27 c0 -2 -10 -9 -22 -15 -22 -11 -22 -10
-4 4 21 17 26 19 26 11z m-50 -30 c0 -2 -10 -9 -22 -15 -22 -11 -22 -10 -4 4
21 17 26 19 26 11z m70 -25 c-12 -16 -24 -30 -26 -30 -3 0 4 14 16 30 12 17
24 30 26 30 3 0 -4 -13 -16 -30z m61 3 c-12 -20 -14 -14 -5 12 4 9 9 14 11 11
3 -2 0 -13 -6 -23z m-1056 -1 c-37 -23 -49 -26 -52 -15 -2 5 11 14 29 19 50
17 56 16 23 -4z m305 15 c0 -2 -10 -12 -22 -23 l-23 -19 19 23 c18 21 26 27
26 19z m721 -24 c-12 -20 -14 -14 -5 12 4 9 9 14 11 11 3 -2 0 -13 -6 -23z
m-606 -9 c-26 -20 -55 -36 -55 -30 0 5 63 46 70 46 3 -1 -4 -8 -15 -16z m250
-49 c-14 -31 -24 -60 -21 -62 2 -3 15 1 28 8 18 10 16 5 -10 -20 -17 -18 -32
-40 -32 -49 0 -15 -2 -15 -10 -2 -8 12 -16 9 -47 -20 -35 -32 -36 -33 -9 -3
15 17 25 36 22 42 -10 15 23 73 38 68 8 -3 21 15 36 49 12 30 24 53 26 51 2
-2 -7 -30 -21 -62z m205 60 c0 -2 -10 -9 -22 -15 -22 -11 -22 -10 -4 4 21 17
26 19 26 11z m327 -37 c-3 -8 -6 -5 -6 6 -1 11 2 17 5 13 3 -3 4 -12 1 -19z
m-947 -2 c0 -2 -8 -10 -17 -17 -16 -13 -17 -12 -4 4 13 16 21 21 21 13z m690
-26 c-12 -16 -24 -30 -26 -30 -3 0 4 14 16 30 12 17 24 30 26 30 3 0 -4 -13
-16 -30z m280 -10 c-6 -11 -8 -29 -5 -40 3 -11 0 -22 -8 -27 -8 -4 -19 -17
-26 -28 -10 -18 -11 -17 -5 8 5 22 3 27 -12 28 -17 0 -17 1 2 9 11 4 29 25 38
45 10 20 20 34 23 32 2 -3 0 -15 -7 -27z m-480 -5 c0 -2 -10 -9 -22 -15 -22
-11 -22 -10 -4 4 21 17 26 19 26 11z m241 -22 c-12 -20 -14 -14 -5 12 4 9 9
14 11 11 3 -2 0 -13 -6 -23z m-771 13 c0 -2 -8 -10 -17 -17 -16 -13 -17 -12
-4 4 13 16 21 21 21 13z m-159 -33 c13 -16 12 -17 -3 -4 -10 7 -18 15 -18 17
0 8 8 3 21 -13z m839 -13 c-12 -16 -24 -30 -26 -30 -3 0 4 14 16 30 12 17 24
30 26 30 3 0 -4 -13 -16 -30z m-3220 10 c0 -5 -5 -10 -11 -10 -5 0 -7 5 -4 10
3 6 8 10 11 10 2 0 4 -4 4 -10z m3291 -27 c-12 -20 -14 -14 -5 12 4 9 9 14 11
11 3 -2 0 -13 -6 -23z m-791 13 c0 -2 -8 -10 -17 -17 -16 -13 -17 -12 -4 4 13
16 21 21 21 13z m-475 -16 c3 -5 -1 -10 -10 -10 -9 0 -13 5 -10 10 3 6 8 10
10 10 2 0 7 -4 10 -10z m386 -7 c13 -16 12 -17 -3 -4 -10 7 -18 15 -18 17 0 8
8 3 21 -13z m477 0 c-10 -2 -28 -2 -40 0 -13 2 -5 4 17 4 22 1 32 -1 23 -4z
m-100 -10 c-10 -2 -26 -2 -35 0 -10 3 -2 5 17 5 19 0 27 -2 18 -5z m495 -57
c-33 -68 -55 -54 -23 16 16 36 19 38 14 13 l-5 -30 18 32 c28 55 26 29 -4 -31z
m-590 47 c-7 -2 -21 -2 -30 0 -10 3 -4 5 12 5 17 0 24 -2 18 -5z m477 -23
c-12 -16 -24 -30 -26 -30 -3 0 4 14 16 30 12 17 24 30 26 30 3 0 -4 -13 -16
-30z m-710 11 c0 -5 -7 -14 -15 -21 -13 -10 -15 -9 -15 9 0 12 6 21 15 21 8 0
15 -4 15 -9z m143 2 c-7 -2 -19 -2 -25 0 -7 3 -2 5 12 5 14 0 19 -2 13 -5z
m878 -50 c-12 -20 -14 -14 -5 12 4 9 9 14 11 11 3 -2 0 -13 -6 -23z m-514 -5
c-3 -8 -6 -5 -6 6 -1 11 2 17 5 13 3 -3 4 -12 1 -19z m-3127 2 c0 -5 -4 -10
-10 -10 -5 0 -10 5 -10 10 0 6 5 10 10 10 6 0 10 -4 10 -10z m3280 -30 c-12
-16 -24 -30 -26 -30 -3 0 4 14 16 30 12 17 24 30 26 30 3 0 -4 -13 -16 -30z
m-300 -25 c-24 -25 -46 -45 -49 -45 -3 0 15 20 39 45 24 25 46 45 49 45 3 0
-15 -20 -39 -45z m-630 25 c0 -5 -7 -10 -16 -10 -8 0 -12 5 -9 10 3 6 10 10
16 10 5 0 9 -4 9 -10z m787 -42 c-3 -7 -5 -2 -5 12 0 14 2 19 5 13 2 -7 2 -19
0 -25z m474 5 c-12 -20 -14 -14 -5 12 4 9 9 14 11 11 3 -2 0 -13 -6 -23z
m-3728 2 c-3 -9 -8 -14 -10 -11 -3 3 -2 9 2 15 9 16 15 13 8 -4z m200 -31 c35
-33 53 -59 24 -35 -8 6 -18 7 -22 3 -5 -4 -5 -2 -2 5 4 6 -7 23 -24 37 -17 14
-27 26 -22 26 4 0 25 -16 46 -36z m3147 -4 c-12 -16 -24 -30 -26 -30 -3 0 4
14 16 30 12 17 24 30 26 30 3 0 -4 -13 -16 -30z m-340 -55 c-24 -25 -46 -45
-49 -45 -3 0 15 20 39 45 24 25 46 45 49 45 3 0 -15 -20 -39 -45z m257 23 c-3
-8 -6 -5 -6 6 -1 11 2 17 5 13 3 -3 4 -12 1 -19z m53 -12 c0 -2 -8 -10 -17
-17 -16 -13 -17 -12 -4 4 13 16 21 21 21 13z m-3186 -22 c3 -8 2 -12 -4 -9 -6
3 -10 10 -10 16 0 14 7 11 14 -7z m140 3 c4 4 4 -1 0 -10 -3 -10 -7 -17 -8
-15 -1 2 -8 12 -16 23 -14 18 -13 19 1 8 9 -7 19 -10 23 -6z m-294 -37 c0 -5
-5 -10 -11 -10 -5 0 -7 5 -4 10 3 6 8 10 11 10 2 0 4 -4 4 -10z m188 -35 c-3
-3 -9 2 -12 12 -6 14 -5 15 5 6 7 -7 10 -15 7 -18z m2782 12 c0 -2 -19 -21
-42 -42 l-43 -40 40 43 c36 39 45 47 45 39z m-820 -41 c0 -2 -8 -10 -17 -17
-16 -13 -17 -12 -4 4 13 16 21 21 21 13z m-1613 -12 c-3 -3 -12 -4 -19 -1 -8
3 -5 6 6 6 11 1 17 -2 13 -5z m-160 -18 c0 -8 -6 -12 -14 -9 -7 3 -10 9 -7 14
8 14 21 11 21 -5z m103 10 c0 -11 -19 -15 -25 -6 -3 5 1 10 9 10 9 0 16 -2 16
-4z m-535 -16 c-3 -5 -1 -10 5 -10 6 0 8 -5 4 -12 -6 -9 -9 -9 -12 0 -2 7 -9
9 -15 5 -7 -4 -6 1 2 10 15 18 26 23 16 7z m485 0 c0 -5 -2 -10 -4 -10 -3 0
-8 5 -11 10 -3 6 -1 10 4 10 6 0 11 -4 11 -10z m-400 -40 c0 -5 -2 -10 -4 -10
-3 0 -8 5 -11 10 -3 6 -1 10 4 10 6 0 11 -4 11 -10z m2840 7 c0 -2 -17 -19
-37 -38 l-38 -34 34 38 c33 34 41 42 41 34z m-1755 -27 c3 -5 1 -10 -4 -10 -6
0 -11 5 -11 10 0 6 2 10 4 10 3 0 8 -4 11 -10z m1666 -65 c11 7 11 5 -1 -10
-14 -17 -14 -18 7 -7 30 17 41 15 17 -3 -15 -12 -16 -16 -6 -23 11 -7 9 -10
-7 -15 -12 -3 -25 -16 -30 -29 -6 -12 -10 -18 -10 -12 -1 19 -32 26 -50 12
-10 -8 -9 -5 3 10 19 22 19 22 -5 23 -17 1 -19 3 -6 6 9 2 17 11 17 19 0 8 7
17 15 20 8 4 15 13 15 22 0 13 2 13 13 -3 9 -12 19 -15 28 -10z m742 -17 c-3
-13 -11 -29 -16 -36 -6 -8 -11 -28 -10 -45 1 -30 1 -30 -6 -7 -14 42 7 104 36
110 0 0 -1 -10 -4 -22z m-3424 -49 c-2 -27 -8 -54 -16 -60 -7 -6 -10 -15 -7
-21 3 -5 0 -16 -7 -24 -9 -11 -9 -18 -1 -26 16 -16 -27 -72 -45 -57 -10 9 -13
7 -13 -10 0 -23 -15 -29 -23 -8 -3 7 -6 5 -6 -5 -1 -11 -9 -18 -21 -18 -27 0
-25 -22 5 -50 14 -13 23 -26 20 -28 -2 -3 -13 6 -24 19 l-20 24 -2 -25 c-1
-14 -1 -31 0 -37 1 -7 -5 -13 -14 -13 -12 0 -14 4 -5 19 5 11 10 28 9 38 0 16
-1 16 -9 -2 -8 -19 -9 -19 -9 3 -1 12 4 22 11 22 6 0 8 3 5 6 -4 4 13 28 36
54 23 26 55 67 72 91 16 24 32 46 35 49 3 3 5 24 5 47 0 22 4 39 9 35 5 -3 7
5 4 16 -4 13 -2 20 3 16 6 -3 9 -28 8 -55z m469 44 c20 -9 43 -15 50 -14 6 1
12 -3 12 -9 0 -5 8 -10 18 -11 9 0 35 -9 57 -20 22 -10 33 -17 25 -15 -8 2
-47 12 -87 22 -40 9 -70 21 -67 26 3 4 -2 5 -10 2 -19 -7 -21 -20 -3 -27 9 -4
9 -6 -1 -6 -7 -1 -15 6 -18 14 -4 10 -15 13 -33 10 -22 -5 -23 -4 -6 4 20 9
20 10 -1 10 -43 2 -84 -12 -89 -29 -3 -10 -13 -21 -21 -24 -13 -5 -12 0 4 26
10 18 24 32 31 31 6 -2 10 0 10 5 -3 19 4 22 46 22 25 0 62 -7 83 -17z m-621
-35 c-3 -8 -6 -5 -6 6 -1 11 2 17 5 13 3 -3 4 -12 1 -19z m94 7 c26 -14 28
-18 17 -38 -7 -12 -11 -26 -9 -32 1 -5 -3 -5 -10 2 -9 9 -8 15 5 29 16 16 16
17 -6 28 -13 7 -35 11 -50 11 -16 -1 -28 2 -28 7 0 13 49 9 81 -7z m443 -11
c3 -8 2 -12 -4 -9 -6 3 -10 10 -10 16 0 14 7 11 14 -7z m2499 9 c-24 -2 -62
-2 -85 0 -24 2 -5 4 42 4 47 0 66 -2 43 -4z m-513 -28 c0 -8 -4 -15 -10 -15
-5 0 -10 7 -10 15 0 8 5 15 10 15 6 0 10 -7 10 -15z m-2484 -40 c-9 -9 -16
-13 -16 -8 0 12 22 34 28 28 2 -2 -3 -11 -12 -20z m568 -21 c3 -7 -2 -15 -10
-18 -9 -3 -12 -1 -9 4 3 6 -2 10 -12 11 -11 0 -13 3 -5 6 10 4 10 8 0 21 -12
14 -11 14 9 1 13 -7 25 -19 27 -25z m-519 6 c3 -6 -1 -7 -9 -4 -18 7 -21 14
-7 14 6 0 13 -4 16 -10z m409 2 c3 -5 -1 -9 -9 -9 -8 0 -12 4 -9 9 3 4 7 8 9
8 2 0 6 -4 9 -8z m3017 -19 c-12 -20 -14 -14 -5 12 4 9 9 14 11 11 3 -2 0 -13
-6 -23z m-3468 2 c-3 -9 -8 -14 -10 -11 -3 3 -2 9 2 15 9 16 15 13 8 -4z m32
-5 c3 -5 -1 -10 -10 -10 -9 0 -13 5 -10 10 3 6 8 10 10 10 2 0 7 -4 10 -10z
m-88 -32 c-3 -8 -6 -5 -6 6 -1 11 2 17 5 13 3 -3 4 -12 1 -19z m-16 -41 c-10
-9 -11 -8 -5 6 3 10 9 15 12 12 3 -3 0 -11 -7 -18z m3510 -4 c-12 -20 -14 -14
-5 12 4 9 9 14 11 11 3 -2 0 -13 -6 -23z m-1948 4 c3 -8 -1 -14 -8 -14 -7 0
-11 6 -8 14 3 7 6 13 8 13 2 0 5 -6 8 -13z m-1395 -17 c-7 -10 -14 -17 -17
-15 -4 4 18 35 25 35 2 0 -1 -9 -8 -20z m1333 11 c-16 -10 -3 -20 32 -23 16
-1 23 -7 20 -15 -8 -20 13 -15 23 5 7 14 15 17 34 12 24 -7 24 -8 -13 -24 -21
-9 -42 -14 -47 -11 -6 4 -10 -2 -10 -12 0 -14 -2 -15 -9 -4 -10 15 -31 7 -31
-13 0 -8 -7 -19 -15 -26 -17 -15 -19 -7 -5 21 10 17 9 18 -15 7 -27 -12 -30
-19 -16 -33 6 -6 0 -21 -15 -39 -23 -26 -27 -27 -41 -13 -13 13 -14 19 -3 31
7 10 8 16 2 16 -14 0 -24 -33 -16 -53 3 -10 -2 -20 -15 -27 -14 -7 -21 -7 -21
0 0 5 5 10 11 10 6 0 9 6 6 13 -2 6 0 20 4 29 6 10 5 19 -1 23 -5 3 -10 2 -10
-3 0 -6 -7 -13 -15 -16 -13 -4 -12 -1 2 18 10 13 21 19 24 14 10 -15 50 14 44
32 -4 8 -3 11 1 8 4 -4 18 1 31 12 13 10 31 16 40 13 13 -5 15 -1 10 19 -7 26
-1 38 17 38 6 0 5 -4 -3 -9z m-1508 -31 c-3 -11 -10 -20 -15 -20 -6 0 -7 -8
-3 -17 4 -13 3 -15 -5 -7 -8 8 -8 18 1 37 14 32 29 36 22 7z m3523 -2 c4 -7 3
-8 -4 -4 -7 4 -12 1 -12 -9 0 -9 -4 -14 -9 -11 -5 3 -12 -1 -15 -10 -4 -9 -9
-14 -12 -11 -7 7 25 57 37 57 4 0 11 -5 15 -12z m-2666 -48 c0 -5 -2 -10 -4
-10 -3 0 -8 5 -11 10 -3 6 -1 10 4 10 6 0 11 -4 11 -10z m2637 -32 c-3 -8 -6
-5 -6 6 -1 11 2 17 5 13 3 -3 4 -12 1 -19z m-3386 -5 c13 -16 12 -17 -3 -4
-17 13 -22 21 -14 21 2 0 10 -8 17 -17z m2806 -5 c-3 -8 -6 -5 -6 6 -1 11 2
17 5 13 3 -3 4 -12 1 -19z m-2952 2 c3 -5 1 -10 -4 -10 -6 0 -11 5 -11 10 0 6
2 10 4 10 3 0 8 -4 11 -10z m351 -46 c-4 -13 -1 -24 7 -27 9 -3 9 -7 -1 -20
-8 -9 -11 -25 -7 -37 5 -15 2 -20 -12 -20 -15 0 -16 2 -3 11 13 9 13 10 -1 6
-9 -3 -22 -1 -30 4 -11 7 -11 9 4 9 21 0 22 8 0 32 -15 16 -15 18 0 18 24 0
37 30 25 55 -10 18 -10 19 6 6 11 -9 15 -22 12 -37z m-363 11 c-3 -9 -8 -14
-10 -11 -3 3 -2 9 2 15 9 16 15 13 8 -4z m3534 -27 c-3 -8 -6 -5 -6 6 -1 11 2
17 5 13 3 -3 4 -12 1 -19z m-3429 -53 c14 5 15 4 4 -7 -11 -11 -18 -8 -38 15
-13 15 -24 33 -24 40 0 7 9 -3 20 -21 15 -25 26 -32 38 -27z m1629 49 c21 -6
21 -6 -8 -49 -24 -35 -33 -41 -54 -37 -24 4 -25 2 -25 -38 0 -41 -1 -42 -29
-38 -23 3 -27 1 -23 -14 2 -10 -1 -18 -7 -18 -13 0 -15 46 -2 55 5 3 12 1 16
-5 8 -13 35 -13 35 0 0 5 -7 6 -17 3 -11 -4 -14 -3 -9 6 4 7 3 10 -5 9 -23 -6
-19 19 11 64 17 26 43 51 58 57 34 12 33 12 59 5z m-288 -36 c-6 -12 -18 -27
-26 -31 -7 -5 -11 -12 -8 -18 4 -5 0 -9 -7 -9 -10 0 -10 -2 -1 -8 7 -4 9 -13
5 -19 -8 -13 -20 -7 -42 22 -14 19 -14 19 2 6 16 -12 19 -10 27 12 6 14 18 30
28 36 10 6 14 11 9 11 -5 0 -3 7 4 15 18 22 24 11 9 -17z m-1449 -27 c-6 -16
-10 -34 -7 -38 3 -5 2 -15 -4 -23 -7 -12 -9 -9 -9 9 0 28 21 93 28 86 3 -2 -1
-18 -8 -34z m190 35 c0 -3 -4 -8 -10 -11 -5 -3 -10 -1 -10 4 0 6 5 11 10 11 6
0 10 -2 10 -4z m2807 -18 c-3 -8 -6 -5 -6 6 -1 11 2 17 5 13 3 -3 4 -12 1 -19z
m-2833 -4 c3 -8 2 -12 -4 -9 -6 3 -10 10 -10 16 0 14 7 11 14 -7z m3006 -9
c-14 -8 -29 -14 -35 -14 -5 0 1 6 15 14 14 8 30 14 35 14 6 0 -1 -6 -15 -14z
m-163 -27 c-3 -8 -6 -5 -6 6 -1 11 2 17 5 13 3 -3 4 -12 1 -19z m-2681 -4 c-5
-12 -2 -15 11 -10 10 4 14 4 10 -1 -5 -4 -25 -8 -45 -9 -29 -2 -33 -1 -16 6
12 5 25 13 29 19 10 17 18 13 11 -5z m234 -4 c0 -5 -4 -10 -10 -10 -5 0 -10 5
-10 10 0 6 5 10 10 10 6 0 10 -4 10 -10z m1824 2 c9 -14 -9 -31 -23 -23 -7 5
-10 14 -7 20 8 13 23 14 30 3z m-1584 -6 c0 -2 -8 -10 -17 -17 -16 -13 -17
-12 -4 4 13 16 21 21 21 13z m929 -20 c24 -29 -12 -91 -46 -79 -7 3 -39 -12
-70 -31 -32 -20 -65 -36 -73 -36 -26 -1 -142 -67 -128 -74 7 -3 3 -3 -9 0 -13
3 -70 -10 -130 -30 -60 -19 -130 -37 -158 -41 -27 -4 -54 -10 -60 -13 -5 -3
-21 -7 -35 -8 -14 -1 -49 -5 -78 -7 -29 -3 -60 -11 -69 -18 -12 -10 -15 -10
-9 -1 12 20 -113 16 -136 -5 -18 -16 -18 -16 -12 1 6 16 2 17 -37 11 -24 -4
-56 -2 -71 4 -23 9 -26 8 -22 -7 5 -14 4 -15 -5 -2 -5 8 -36 20 -68 25 -46 8
-12 10 160 8 119 -1 217 1 217 5 0 4 31 8 68 9 84 3 307 59 427 108 122 49
275 128 275 140 0 18 30 55 44 55 8 0 19 -6 25 -14z m1296 -19 c-20 -11 -29
-3 -21 19 5 13 9 14 22 3 14 -11 14 -13 -1 -22z m-108 16 c-20 -2 -52 -2 -70
0 -17 2 0 4 38 4 39 0 53 -2 32 -4z m-2917 -33 c0 -5 -2 -10 -4 -10 -3 0 -8 5
-11 10 -3 6 -1 10 4 10 6 0 11 -4 11 -10z m930 -10 c0 -5 -4 -10 -10 -10 -5 0
-10 5 -10 10 0 6 5 10 10 10 6 0 10 -4 10 -10z m2038 -36 c-18 -25 -37 -48
-43 -52 -5 -3 3 12 19 34 45 60 48 64 53 64 2 0 -11 -21 -29 -46z m-2976 -31
c-3 -16 -7 -22 -10 -15 -4 13 4 42 11 42 2 0 2 -12 -1 -27z m588 1 c0 -8 -4
-12 -10 -9 -5 3 -10 10 -10 16 0 5 5 9 10 9 6 0 10 -7 10 -16z m-430 -24 c0
-5 -5 -10 -11 -10 -5 0 -7 5 -4 10 3 6 8 10 11 10 2 0 4 -4 4 -10z m-147 -30
c3 -11 1 -18 -4 -14 -5 3 -9 12 -9 20 0 20 7 17 13 -6z m77 0 c0 -5 -2 -10 -4
-10 -3 0 -8 5 -11 10 -3 6 -1 10 4 10 6 0 11 -4 11 -10z m-30 -4 c0 -3 -4 -8
-10 -11 -5 -3 -10 -1 -10 4 0 6 5 11 10 11 6 0 10 -2 10 -4z m950 -11 c7 -9 8
-15 2 -15 -5 0 -12 7 -16 15 -3 8 -4 15 -2 15 2 0 9 -7 16 -15z m-640 -10 c6
-3 8 -11 5 -16 -3 -5 0 -6 8 -4 7 3 22 -5 33 -17 15 -18 15 -20 2 -9 -15 11
-18 11 -18 -2 0 -9 10 -18 23 -20 19 -4 18 -4 -5 -6 -22 -1 -28 4 -28 19 0 11
-4 20 -10 20 -5 0 -10 -9 -10 -20 0 -14 -6 -20 -22 -19 -17 1 -19 2 -5 6 9 2
17 9 17 14 0 5 -14 2 -31 -7 -25 -12 -40 -14 -69 -6 -27 6 -42 6 -49 -1 -8 -8
-11 -8 -11 1 0 6 -7 9 -15 6 -8 -4 -15 -1 -15 5 0 6 7 11 15 11 18 0 20 20 3
20 -7 1 -2 10 11 20 20 17 34 20 92 16 38 -2 73 -7 79 -11z m420 5 c0 -5 -5
-10 -11 -10 -5 0 -7 5 -4 10 3 6 8 10 11 10 2 0 4 -4 4 -10z m2120 6 c0 -2 -8
-10 -17 -17 -16 -13 -17 -12 -4 4 13 16 21 21 21 13z m-2903 -53 c-3 -10 -5
-4 -5 12 0 17 2 24 5 18 2 -7 2 -21 0 -30z m1782 3 c9 -11 9 -16 -1 -22 -7 -4
-10 -4 -6 1 4 4 3 14 -3 22 -6 7 -9 13 -6 13 2 0 10 -6 16 -14z m1071 -20 c0
-2 -8 -10 -17 -17 -16 -13 -17 -12 -4 4 13 16 21 21 21 13z m-2785 -24 c-3 -3
-11 0 -18 7 -9 10 -8 11 6 5 10 -3 15 -9 12 -12z m3295 -8 c0 -8 -5 -12 -10
-9 -6 4 -8 11 -5 16 9 14 15 11 15 -7z m-2936 -3 c35 -14 2 -19 -34 -5 -30 11
-32 12 -10 13 14 0 34 -4 44 -8z m-306 -16 c18 -6 32 -25 18 -25 -7 0 -76 30
-76 33 0 5 30 0 58 -8z m135 -4 c-17 -12 -16 -13 5 -8 15 3 25 0 29 -8 4 -11
16 -13 51 -8 31 4 43 3 39 -4 -4 -6 -30 -11 -57 -11 -28 -1 -49 2 -46 6 2 4
-16 7 -40 6 -46 -1 -52 4 -31 25 6 8 7 11 2 8 -6 -3 -17 -1 -25 4 -10 6 1 9
38 7 47 -3 50 -5 35 -17z m2547 -11 c-12 -16 -24 -30 -26 -30 -3 0 4 14 16 30
12 17 24 30 26 30 3 0 -4 -13 -16 -30z m-1740 -17 c0 -3 -7 -3 -15 1 -8 3 -15
0 -15 -6 0 -6 -3 -9 -6 -5 -11 10 6 26 21 20 8 -3 15 -7 15 -10z m2287 -5 c-3
-8 -6 -5 -6 6 -1 11 2 17 5 13 3 -3 4 -12 1 -19z m-3209 -4 c12 7 38 -12 28
-21 -5 -4 -11 -3 -13 4 -2 7 -11 9 -19 6 -7 -3 -11 -10 -7 -16 3 -6 1 -7 -5
-3 -7 4 -17 16 -23 27 -10 19 -9 20 10 9 12 -6 25 -9 29 -6z m3176 4 c-4 -7
-16 -26 -27 -41 -10 -15 -17 -37 -14 -48 3 -10 1 -17 -4 -13 -15 9 -10 33 17
74 24 37 45 57 28 28z m-564 -48 c-12 -16 -24 -30 -26 -30 -3 0 4 14 16 30 12
17 24 30 26 30 3 0 -4 -13 -16 -30z m-1430 -10 c0 -5 -5 -10 -11 -10 -5 0 -7
5 -4 10 3 6 8 10 11 10 2 0 4 -4 4 -10z m1310 -20 c6 -11 8 -20 6 -20 -3 0
-10 9 -16 20 -6 11 -8 20 -6 20 3 0 10 -9 16 -20z m160 5 c0 -2 -20 -18 -45
-35 -25 -17 -45 -29 -45 -26 0 4 80 64 88 66 1 0 2 -2 2 -5z m-70 -19 c0 -2
-8 -10 -17 -17 -16 -13 -17 -12 -4 4 13 16 21 21 21 13z m-2030 -10 c0 -3 -4
-8 -10 -11 -5 -3 -10 -1 -10 4 0 6 5 11 10 11 6 0 10 -2 10 -4z m-640 -15 c0
-6 -4 -13 -10 -16 -5 -3 -10 1 -10 9 0 9 5 16 10 16 6 0 10 -4 10 -9z m2633
-14 c4 3 7 -1 7 -10 0 -16 -15 -30 -35 -33 -6 -1 -11 7 -11 17 0 11 4 19 9 19
5 0 3 8 -4 18 -13 16 -13 16 7 -1 11 -9 24 -14 27 -10z m-2573 -22 c-6 -8 -9
-19 -5 -24 4 -7 0 -8 -10 -5 -14 6 -14 8 1 25 20 22 32 26 14 4z m-66 -34 c8
-12 8 -13 -2 -7 -10 6 -11 2 -7 -17 4 -14 3 -27 -2 -30 -4 -3 -9 18 -9 46 -1
29 1 45 3 37 3 -8 11 -21 17 -29z m216 19 c0 -5 -5 -10 -11 -10 -5 0 -7 5 -4
10 3 6 8 10 11 10 2 0 4 -4 4 -10z m2517 -6 c-3 -3 -12 -4 -19 -1 -8 3 -5 6 6
6 11 1 17 -2 13 -5z m-1567 -9 c0 -2 -10 -10 -22 -16 -21 -11 -22 -11 -9 4 13
16 31 23 31 12z m1617 -1 c-3 -3 -12 -4 -19 -1 -8 3 -5 6 6 6 11 1 17 -2 13
-5z m50 -10 c-3 -3 -12 -4 -19 -1 -8 3 -5 6 6 6 11 1 17 -2 13 -5z m-2742 -24
c10 -11 14 -20 9 -20 -5 0 -15 9 -22 20 -7 11 -11 20 -9 20 2 0 12 -9 22 -20z
m2850 5 c28 -7 41 -13 30 -14 -11 0 -42 6 -70 13 -63 18 -28 19 40 1z m-1475
-5 c0 -5 -5 -10 -11 -10 -5 0 -7 5 -4 10 3 6 8 10 11 10 2 0 4 -4 4 -10z
m-365 -20 c-10 -11 -22 -20 -28 -20 -5 0 1 9 14 20 31 25 37 25 14 0z m-378 4
c-3 -3 -12 -4 -19 -1 -8 3 -5 6 6 6 11 1 17 -2 13 -5z m2449 -16 c-9 -12 -16
-38 -16 -57 0 -43 -5 -38 -13 14 -6 40 -2 46 41 64 2 0 -4 -9 -12 -21z m-2126
8 c0 -2 -7 -7 -16 -10 -8 -3 -12 -2 -9 4 6 10 25 14 25 6z m1939 -10 c-2 -2
-65 -42 -139 -88 -74 -46 -148 -92 -165 -103 -16 -10 -25 -14 -20 -8 14 16
308 202 319 203 5 0 7 -2 5 -4z m-2970 -20 c9 -11 8 -15 -4 -20 -10 -4 -14 -2
-9 5 4 6 0 15 -7 20 -8 5 -9 9 -3 9 6 0 17 -6 23 -14z m81 -16 c0 -5 -2 -10
-4 -10 -3 0 -8 5 -11 10 -3 6 -1 10 4 10 6 0 11 -4 11 -10z m787 -6 c-3 -3
-12 -4 -19 -1 -8 3 -5 6 6 6 11 1 17 -2 13 -5z m99 -3 c-8 -12 -46 -21 -46
-11 0 5 8 11 18 13 29 8 33 7 28 -2z m-313 -28 c-7 -2 -21 -2 -30 0 -10 3 -4
5 12 5 17 0 24 -2 18 -5z m-568 -46 c22 -16 32 -27 22 -23 -10 3 -23 6 -28 6
-6 0 -7 5 -3 12 5 8 2 9 -10 5 -10 -4 -15 -3 -11 3 3 6 1 11 -4 11 -6 1 -15 2
-20 3 -6 0 -16 7 -23 15 -24 24 33 1 77 -32z m704 40 c-2 -1 -13 -9 -24 -17
-19 -14 -19 -14 -6 3 7 9 18 17 24 17 6 0 8 -1 6 -3z m1752 -24 c-12 -20 -14
-14 -5 12 4 9 9 14 11 11 3 -2 0 -13 -6 -23z m-2138 0 c-7 -2 -19 -2 -25 0 -7
3 -2 5 12 5 14 0 19 -2 13 -5z m-203 -13 c0 -5 -8 -10 -17 -10 -15 0 -16 2 -3
10 19 12 20 12 20 0z m285 0 c-3 -5 -11 -10 -16 -10 -6 0 -7 5 -4 10 3 6 11
10 16 10 6 0 7 -4 4 -10z m-160 -10 c-3 -5 -16 -10 -28 -9 -20 1 -20 2 3 9 14
4 26 8 28 9 2 1 0 -3 -3 -9z m1132 -82 c-3 -8 -6 -5 -6 6 -1 11 2 17 5 13 3
-3 4 -12 1 -19z m1158 -14 c-26 -20 -55 -36 -55 -30 0 5 63 46 70 46 3 -1 -4
-8 -15 -16z m435 -71 c-11 -17 -11 -17 -6 0 3 10 6 24 7 30 0 9 2 9 5 0 3 -7
0 -20 -6 -30z m-547 8 c22 12 22 12 3 -9 -18 -21 -18 -22 3 -30 18 -6 14 -9
-24 -18 -36 -8 -45 -8 -45 3 0 7 -7 13 -15 13 -12 0 -11 4 5 20 11 11 25 20
30 20 6 0 11 6 11 13 1 6 3 4 6 -5 4 -15 8 -16 26 -7z m-146 -47 c-3 -3 -12
-4 -19 -1 -8 3 -5 6 6 6 11 1 17 -2 13 -5z m210 -10 c-3 -3 -12 -4 -19 -1 -8
3 -5 6 6 6 11 1 17 -2 13 -5z m40 -10 c-3 -3 -12 -4 -19 -1 -8 3 -5 6 6 6 11
1 17 -2 13 -5z m40 -10 c-3 -3 -12 -4 -19 -1 -8 3 -5 6 6 6 11 1 17 -2 13 -5z
m-673 -25 c-3 -5 -10 -7 -15 -3 -5 3 -7 10 -3 15 3 5 10 7 15 3 5 -3 7 -10 3
-15z m-500 -5 c3 -8 2 -12 -4 -9 -6 3 -10 10 -10 16 0 14 7 11 14 -7z m1243
10 c-3 -3 -12 -4 -19 -1 -8 3 -5 6 6 6 11 1 17 -2 13 -5z m40 -10 c-3 -3 -12
-4 -19 -1 -8 3 -5 6 6 6 11 1 17 -2 13 -5z m-17 -54 c-8 -5 -19 -10 -25 -10
-5 0 -3 5 5 10 8 5 20 10 25 10 6 0 3 -5 -5 -10z m206 -16 c-4 -9 -9 -15 -11
-12 -3 3 -3 13 1 22 4 9 9 15 11 12 3 -3 3 -13 -1 -22z m-256 -4 c-8 -5 -19
-10 -25 -10 -5 0 -3 5 5 10 8 5 20 10 25 10 6 0 3 -5 -5 -10z m-1260 -10 c0
-5 -5 -10 -11 -10 -5 0 -7 5 -4 10 3 6 8 10 11 10 2 0 4 -4 4 -10z m1175 -25
c-27 -13 -54 -24 -60 -24 -5 1 13 11 40 24 28 13 55 24 60 24 6 -1 -12 -11
-40 -24z m-259 -64 c-20 -38 -20 -42 1 -34 14 5 13 3 -3 -14 -16 -17 -21 -18
-34 -6 -13 13 -13 15 1 23 9 5 22 23 29 40 7 17 15 29 17 26 2 -2 -3 -18 -11
-35z m174 29 c-8 -5 -19 -10 -25 -10 -5 0 -3 5 5 10 8 5 20 10 25 10 6 0 3 -5
-5 -10z m-50 -20 c-8 -5 -19 -10 -25 -10 -5 0 -3 5 5 10 8 5 20 10 25 10 6 0
3 -5 -5 -10z m-1330 -10 c0 -5 -5 -10 -11 -10 -5 0 -7 5 -4 10 3 6 8 10 11 10
2 0 4 -4 4 -10z m690 -10 c0 -5 -4 -10 -10 -10 -5 0 -10 5 -10 10 0 6 5 10 10
10 6 0 10 -4 10 -10z m-410 -10 c0 -5 -2 -10 -4 -10 -3 0 -8 5 -11 10 -3 6 -1
10 4 10 6 0 11 -4 11 -10z m980 0 c-8 -5 -19 -10 -25 -10 -5 0 -3 5 5 10 8 5
20 10 25 10 6 0 3 -5 -5 -10z m-782 -55 c-3 -3 -13 7 -23 22 l-17 28 23 -22
c12 -12 20 -25 17 -28z m47 25 c10 -11 16 -20 13 -20 -3 0 -13 9 -23 20 -10
11 -16 20 -13 20 3 0 13 -9 23 -20z m792 -67 c1 -44 0 -45 -6 -13 l-7 35 -17
-32 c-10 -18 -20 -33 -23 -33 -2 0 3 15 13 33 9 17 18 37 18 42 4 24 5 26 13
21 5 -3 9 -27 9 -53z m-156 20 c-12 -20 -14 -14 -5 12 4 9 9 14 11 11 3 -2 0
-13 -6 -23z m565 -25 c-9 -13 -16 -17 -16 -9 0 23 -40 -19 -41 -43 -1 -17 -2
-17 -6 -4 -3 10 11 36 34 63 26 32 39 41 41 31 2 -9 -4 -26 -12 -38z m-507
-13 c0 -5 -6 1 -14 15 -8 14 -14 30 -14 35 0 6 6 -1 14 -15 8 -14 14 -29 14
-35z m558 49 c-3 -3 -12 -4 -19 -1 -8 3 -5 6 6 6 11 1 17 -2 13 -5z m-312
-100 c-79 -64 -104 -89 -94 -95 10 -6 11 -9 2 -9 -18 0 -16 -20 4 -44 17 -21
17 -20 -7 0 -14 12 -31 19 -37 17 -7 -3 -13 0 -13 6 0 6 -12 9 -27 7 -16 -2
-22 -1 -15 1 7 3 10 9 7 14 -3 5 1 6 9 3 9 -3 19 3 26 17 8 15 14 18 19 10 5
-8 42 16 112 73 57 47 108 85 113 85 4 1 -40 -38 -99 -85z m-735 45 c0 -5 -4
-9 -10 -9 -5 0 -10 7 -10 16 0 8 5 12 10 9 6 -3 10 -10 10 -16z m402 -31 c-13
-29 -19 -36 -19 -20 1 12 4 22 8 22 4 0 10 12 13 26 4 15 9 24 12 21 3 -3 -3
-25 -14 -49z m-465 -7 c-10 -12 -9 -14 4 -9 19 7 47 -8 35 -19 -5 -4 -11 -3
-13 4 -3 8 -12 4 -25 -9 -21 -21 -22 -21 -28 -2 -5 12 -2 22 7 27 7 5 11 12 9
16 -3 4 1 8 9 8 12 0 12 -3 2 -16z m589 -15 c0 -12 4 -30 8 -41 6 -16 4 -15
-6 3 -11 18 -16 20 -27 10 -11 -11 -11 -9 -2 10 7 12 10 26 7 31 -3 4 0 8 7 8
7 0 12 -10 13 -21z m71 -33 c-3 -10 -5 -2 -5 17 0 19 2 27 5 18 2 -10 2 -26 0
-35z m354 10 c-12 -20 -14 -14 -5 12 4 9 9 14 11 11 3 -2 0 -13 -6 -23z m-622
13 c-10 -9 -69 -36 -69 -32 0 7 52 35 64 36 5 0 7 -2 5 -4z m603 -55 c-3 -7 1
-17 9 -23 11 -8 10 -9 -3 -4 -15 4 -18 -1 -19 -32 -1 -32 -2 -34 -8 -12 -5 14
-4 33 1 42 4 9 8 32 9 50 0 27 2 29 8 13 5 -11 6 -26 3 -34z m-1547 18 c-4 -5
-12 -9 -18 -8 -9 0 -8 2 1 6 6 2 9 10 6 15 -4 7 -2 8 5 4 6 -4 9 -12 6 -17z
m865 -3 c0 -2 -7 -7 -16 -10 -8 -3 -12 -2 -9 4 6 10 25 14 25 6z m-63 -18 c5
13 23 7 23 -9 0 -16 -37 -10 -51 9 -13 16 -13 16 5 2 15 -12 20 -12 23 -2z
m521 -15 c-10 -2 -26 -2 -35 0 -10 3 -2 5 17 5 19 0 27 -2 18 -5z m-451 -9
c-3 -3 -12 -4 -19 -1 -8 3 -5 6 6 6 11 1 17 -2 13 -5z m-997 -14 c0 -5 -5 -10
-11 -10 -5 0 -7 5 -4 10 3 6 8 10 11 10 2 0 4 -4 4 -10z m1037 4 c-3 -3 -12
-4 -19 -1 -8 3 -5 6 6 6 11 1 17 -2 13 -5z m-607 -24 c0 -5 -4 -10 -10 -10 -5
0 -10 5 -10 10 0 6 5 10 10 10 6 0 10 -4 10 -10z m907 -67 c-3 -10 -5 -2 -5
17 0 19 2 27 5 18 2 -10 2 -26 0 -35z m-717 -14 c0 -5 -7 -9 -15 -9 -15 0 -20
12 -9 23 8 8 24 -1 24 -14z m1027 -16 c-3 -10 -5 -4 -5 12 0 17 2 24 5 18 2
-7 2 -21 0 -30z m-690 -35 c-3 -8 -6 -5 -6 6 -1 11 2 17 5 13 3 -3 4 -12 1
-19z m370 -15 c-3 -10 -5 -4 -5 12 0 17 2 24 5 18 2 -7 2 -21 0 -30z m278 7
c17 -19 20 -19 36 -4 17 15 17 14 10 -12 -8 -29 -31 -46 -31 -21 0 7 -9 22
-19 31 -18 17 -19 17 -24 -1 -4 -14 -5 -14 -6 5 -1 27 10 28 34 2z m-1695 -29
c0 -6 -4 -13 -10 -16 -5 -3 -10 1 -10 9 0 9 5 16 10 16 6 0 10 -4 10 -9z
m1070 -22 c0 -19 -1 -19 -16 -5 -8 9 -12 20 -9 26 9 15 25 2 25 -21z m-580 0
c0 -5 -7 -9 -15 -9 -15 0 -20 12 -9 23 8 8 24 -1 24 -14z m1167 -21 c-3 -7 -5
-2 -5 12 0 14 2 19 5 13 2 -7 2 -19 0 -25z m24 -32 c-17 -24 -51 -62 -76 -84
-25 -22 -45 -45 -45 -51 0 -6 -8 -11 -17 -11 -10 0 -42 -9 -72 -20 -29 -12
-59 -19 -65 -16 -6 2 -3 5 7 5 11 1 15 5 11 13 -5 7 -2 9 9 5 12 -4 25 9 52
51 35 56 42 73 28 71 -5 -1 -15 -1 -23 0 -12 1 -11 4 3 12 11 6 24 12 30 13 7
1 17 5 24 9 7 5 21 -1 33 -13 11 -11 25 -20 32 -20 6 0 9 -2 6 -5 -3 -3 -17
-1 -32 5 -31 12 -39 0 -34 -50 l3 -31 43 36 c32 28 42 44 43 68 1 26 3 27 6 8
4 -22 6 -22 29 13 14 20 27 36 30 36 3 0 -9 -20 -25 -44z m-1451 24 c22 12 22
12 7 -11 -15 -21 -15 -24 1 -42 16 -19 16 -19 -5 -6 -19 11 -27 11 -43 2 -16
-10 -18 -10 -14 1 4 10 -2 12 -23 10 l-28 -4 25 10 c20 9 22 13 10 20 -12 8
-10 10 8 10 12 0 22 6 22 13 0 9 3 8 9 -2 7 -10 13 -11 31 -1z m740 -14 c0 -2
-18 -15 -40 -30 -22 -14 -40 -24 -40 -22 0 5 71 56 77 56 2 0 3 -2 3 -4z m307
-12 c-3 -3 -12 -4 -19 -1 -8 3 -5 6 6 6 11 1 17 -2 13 -5z m69 -121 c-2 -3
-13 0 -24 6 -11 6 -23 7 -27 3 -5 -4 -5 -2 -1 5 5 9 13 10 31 1 14 -6 23 -13
21 -15z m53 -17 c10 -11 9 -14 -4 -12 -8 1 -21 8 -27 14 -9 9 -8 12 4 12 8 0
21 -6 27 -14z m-1434 -20 c0 -9 25 -40 55 -68 30 -28 42 -42 25 -31 -16 11
-38 23 -48 26 -10 4 -16 11 -13 16 4 5 -8 20 -25 34 -19 15 -29 29 -24 36 10
17 30 8 30 -13z m1395 9 c0 -2 -18 -14 -40 -25 -22 -11 -40 -18 -40 -15 0 2
17 13 38 24 42 23 42 23 42 16z m-107 -32 c-15 -23 -16 -26 -2 -21 9 3 22 2
30 -4 11 -8 11 -9 -3 -5 -9 3 -24 -1 -35 -8 -24 -19 -40 -19 -47 1 -3 9 -2 12
4 9 6 -4 23 7 37 24 34 38 39 39 16 4z m-1076 11 c-3 -3 -12 -4 -19 -1 -8 3
-5 6 6 6 11 1 17 -2 13 -5z m920 -20 c-20 -11 -32 -12 -45 -4 -15 10 -14 10 5
5 12 -3 24 -1 28 5 3 5 14 10 23 10 12 -1 8 -6 -11 -16z m58 6 c3 -6 -1 -7 -9
-4 -18 7 -21 14 -7 14 6 0 13 -4 16 -10z m222 -6 c-3 -3 -12 -4 -19 -1 -8 3
-5 6 6 6 11 1 17 -2 13 -5z m-490 -10 c-3 -3 -12 -4 -19 -1 -8 3 -5 6 6 6 11
1 17 -2 13 -5z m130 0 c-3 -3 -12 -4 -19 -1 -8 3 -5 6 6 6 11 1 17 -2 13 -5z
m3 -24 c-8 -5 -19 -10 -25 -10 -5 0 -3 5 5 10 8 5 20 10 25 10 6 0 3 -5 -5
-10z m167 -6 c-3 -3 -12 -4 -19 -1 -8 3 -5 6 6 6 11 1 17 -2 13 -5z m-263 -16
c-5 -7 -2 -9 7 -6 8 3 23 1 34 -4 19 -8 19 -8 -2 -4 -12 2 -30 -2 -39 -9 -10
-7 -26 -10 -36 -7 -17 4 -16 7 9 23 34 22 36 22 27 7z m189 5 c-7 -2 -19 -2
-25 0 -7 3 -2 5 12 5 14 0 19 -2 13 -5z m-943 -7 c0 -2 -8 -10 -17 -17 -16
-13 -17 -12 -4 4 13 16 21 21 21 13z m305 -6 c3 -6 -1 -7 -9 -4 -18 7 -21 14
-7 14 6 0 13 -4 16 -10z m568 3 c-7 -2 -19 -2 -25 0 -7 3 -2 5 12 5 14 0 19
-2 13 -5z m-230 -30 c-7 -2 -21 -2 -30 0 -10 3 -4 5 12 5 17 0 24 -2 18 -5z
m-698 -21 c-3 -3 -11 0 -18 7 -9 10 -8 11 6 5 10 -3 15 -9 12 -12z m522 4 c3
-3 -8 -6 -25 -6 -17 0 -34 -5 -37 -10 -4 -6 -12 -7 -18 -3 -7 4 -21 7 -32 6
-16 -1 -17 -1 -2 3 9 3 15 9 13 12 -5 9 92 7 101 -2z m86 7 c-7 -2 -19 -2 -25
0 -7 3 -2 5 12 5 14 0 19 -2 13 -5z m-377 -15 c4 -7 3 -8 -4 -4 -7 4 -12 1
-12 -8 0 -19 -16 -29 -31 -20 -8 4 -4 13 12 25 29 22 26 22 35 7z m91 -14 c-3
-3 -12 -4 -19 -1 -8 3 -5 6 6 6 11 1 17 -2 13 -5z m-190 -10 c-3 -3 -12 -4
-19 -1 -8 3 -5 6 6 6 11 1 17 -2 13 -5z"/>
<path d="M6865 4171 c-3 -5 -2 -12 3 -15 5 -3 9 1 9 9 0 17 -3 19 -12 6z"/>
<path d="M6262 4086 c-18 -6 -30 -15 -25 -20 4 -5 3 -6 -3 -3 -16 9 -87 -13
-101 -32 -17 -23 -16 -28 8 -34 16 -4 40 7 85 39 53 38 86 67 72 63 -2 0 -18
-6 -36 -13z"/>
<path d="M6814 3106 c-3 -8 -4 -22 -2 -31 2 -12 7 -7 15 14 6 18 7 31 2 31 -5
0 -12 -6 -15 -14z"/>
<path d="M6777 3028 c-16 -41 -15 -61 2 -42 9 9 25 84 18 84 -2 0 -11 -19 -20
-42z"/>
<path d="M6676 2779 c-21 -51 -41 -100 -44 -108 -3 -8 -1 -12 5 -8 5 4 18 28
28 54 10 26 27 67 37 90 11 23 18 48 16 55 -2 6 -21 -31 -42 -83z"/>
<path d="M6547 2467 c-20 -50 -37 -96 -37 -102 0 -5 18 33 40 85 22 52 39 98
37 102 -1 5 -19 -34 -40 -85z"/>
<path d="M6482 2313 c-6 -16 -18 -46 -27 -68 -9 -22 -12 -35 -7 -30 16 16 62
125 52 125 -4 0 -13 -12 -18 -27z"/>
<path d="M6369 2045 c-27 -58 -49 -108 -49 -112 0 -17 31 24 41 55 6 20 24 65
40 100 15 34 25 62 23 62 -3 0 -28 -47 -55 -105z"/>
<path d="M6313 1906 c0 -6 -3 -24 -7 -41 -3 -16 -3 -23 0 -15 4 8 13 27 20 41
10 21 10 26 0 26 -7 0 -13 -5 -13 -11z"/>
<path d="M6215 1688 c-37 -90 -68 -172 -69 -183 -2 -11 -6 -28 -11 -38 -4 -11
-3 -23 4 -30 8 -8 11 -8 11 1 0 7 9 31 19 53 14 28 16 37 5 29 -20 -17 -18 -4
5 28 40 54 128 302 109 302 -3 0 -36 -73 -73 -162z"/>
<path d="M6095 1383 c-11 -32 -19 -62 -17 -66 1 -5 -7 -20 -18 -34 -34 -43
-22 -49 14 -7 18 21 34 42 35 46 1 4 8 26 16 48 13 38 12 70 -4 70 -4 0 -16
-26 -26 -57z"/>
<path d="M5833 793 c-32 -16 -42 -36 -24 -47 5 -3 21 10 35 29 15 19 26 35 24
34 -2 0 -18 -8 -35 -16z"/>
<path d="M5434 726 c9 -21 16 -40 16 -42 0 -2 9 -4 20 -4 29 0 25 11 -16 51
l-36 34 16 -39z"/>
<path d="M5749 739 c-10 -6 -4 -9 19 -9 17 0 32 2 32 4 0 9 -39 13 -51 5z"/>
<path d="M4920 613 c-13 -3 -34 -12 -45 -20 -20 -15 -20 -15 0 -8 11 5 35 10
53 13 17 2 32 8 32 13 0 5 -3 8 -7 8 -5 -1 -19 -4 -33 -6z"/>
<path d="M5308 583 c7 -3 16 -2 19 1 4 3 -2 6 -13 5 -11 0 -14 -3 -6 -6z"/>
<path d="M6936 3425 c-9 -26 -7 -32 5 -12 6 10 9 21 6 23 -2 3 -7 -2 -11 -11z"/>
<path d="M3430 2795 c-1 -5 -2 -13 -1 -17 0 -5 -3 -8 -9 -8 -5 0 -10 -8 -10
-17 0 -14 3 -13 16 5 8 12 13 28 11 35 -3 6 -6 8 -7 2z"/>
<path d="M4730 2685 c-16 -19 -1 -19 24 0 16 12 17 15 4 15 -8 0 -21 -7 -28
-15z"/>
<path d="M4706 2636 c3 -9 1 -16 -6 -16 -6 0 -8 -5 -4 -12 5 -8 11 -6 19 5 7
9 16 13 20 9 4 -4 6 0 3 8 -3 8 -12 16 -21 18 -12 2 -15 -1 -11 -12z"/>
<path d="M3575 2561 c-7 -12 12 -24 25 -16 11 7 4 25 -10 25 -5 0 -11 -4 -15
-9z"/>
<path d="M4945 2560 c-3 -5 -13 -7 -23 -4 -9 3 -6 -1 7 -9 19 -11 21 -15 7
-20 -8 -3 -18 -2 -21 3 -8 13 -25 13 -25 -1 0 -5 6 -7 13 -3 8 5 8 2 -2 -9
-12 -15 -11 -17 8 -17 11 0 21 5 21 11 0 5 5 7 10 4 10 -6 14 7 11 32 -1 8 5
10 15 6 12 -4 15 -3 10 5 -9 14 -23 15 -31 2z"/>
<path d="M4856 2482 c-3 -6 -1 -14 5 -17 15 -10 25 3 12 16 -7 7 -13 7 -17 1z"/>
<path d="M3568 2253 c7 -3 16 -2 19 1 4 3 -2 6 -13 5 -11 0 -14 -3 -6 -6z"/>
<path d="M5842 639 c-18 -28 -31 -53 -29 -56 3 -2 19 3 36 12 27 13 31 21 31
55 0 22 -1 40 -2 40 -2 0 -18 -23 -36 -51z"/>
</g>
</svg>
